<?xml version="1.0" standalone="no"?>
<!DOCTYPE svg PUBLIC "-//W3C//DTD SVG 20010904//EN"
 "http://www.w3.org/TR/2001/REC-SVG-20010904/DTD/svg10.dtd">
<svg version="1.0" xmlns="http://www.w3.org/2000/svg"
 width="512.000000pt" height="512.000000pt" viewBox="0 0 512.000000 512.000000"
 preserveAspectRatio="xMidYMid meet">
<metadata>
Created by potrace 1.14, written by Peter Selinger 2001-2017
</metadata>
<g transform="translate(0.000000,512.000000) scale(0.100000,-0.100000)"
fill="#000000" stroke="none">
<path d="M1850 4790 c-1 -25 -1 -152 -1 -282 -1 -174 -4 -238 -12 -239 -7 0
-103 -1 -214 -2 l-202 -1 0 -130 c1 -72 0 -136 0 -142 -1 -7 -48 -11 -137 -11
-79 -1 -139 -6 -143 -11 -3 -6 -5 -69 -4 -141 l1 -131 -26 -1 c-15 0 -79 -1
-142 -2 l-115 -2 0 -490 c0 -316 -4 -492 -10 -496 -5 -4 -133 -7 -282 -7 -272
0 -273 0 -274 22 -1 11 -2 363 -3 781 l-1 760 -140 0 -140 0 -3 -782 -2 -781
142 1 143 1 0 -142 0 -142 40 -1 c22 0 149 -1 283 -1 218 0 242 -2 243 -16 0
-10 1 -233 2 -497 l2 -480 278 -1 c152 -1 280 -4 284 -7 3 -4 6 -163 7 -354
l1 -348 75 0 c41 0 78 -4 82 -10 5 -7 8 -7 8 0 0 6 45 10 115 10 70 0 115 -4
115 -10 0 -7 3 -7 8 0 4 6 34 10 67 10 33 0 63 -4 67 -10 5 -7 8 -7 8 0 0 6
16 10 35 10 19 0 35 -4 35 -10 0 -7 3 -7 8 0 4 6 25 10 46 10 l40 0 0 352 c-1
351 -1 353 20 354 24 1 768 0 807 0 l25 -1 0 -352 1 -353 96 0 c53 0 97 -3 97
-7 0 -3 8 -4 18 -2 38 9 142 9 142 -1 0 -7 3 -7 8 0 4 6 55 10 117 10 62 0
113 -4 117 -10 5 -7 8 -7 8 0 0 6 23 9 52 9 l53 -2 2 -273 c1 -151 2 -279 2
-285 1 -8 84 -11 284 -10 l282 1 1 283 1 282 -36 1 c-20 0 -147 0 -283 1
l-248 0 -1 26 c-4 128 0 674 5 679 3 3 131 7 283 7 l278 1 2 480 c1 264 2 487
2 496 1 14 32 16 281 15 180 -1 280 3 281 9 6 41 4 262 -2 270 -5 6 -109 10
-283 9 -248 -1 -276 0 -277 15 0 9 -1 233 -1 497 l-1 482 -131 0 c-72 0 -136
1 -142 1 -8 1 -11 42 -11 134 0 73 -2 137 -5 143 -4 5 -66 8 -142 7 l-136 -1
-1 26 c0 15 -2 79 -2 142 l-2 115 -200 2 c-110 0 -206 2 -212 2 -10 1 -12 58
-12 239 0 130 0 257 0 282 l-1 45 -139 0 c-117 0 -140 -2 -143 -15 -2 -8 -3
-135 -2 -282 1 -266 1 -268 -20 -269 -28 -1 -774 -1 -807 0 l-26 1 1 280 c1
242 -1 280 -14 281 -8 1 -72 2 -142 3 l-128 1 0 -45z m130 -1525 c0 -7 3 -7 8
0 4 6 55 10 117 10 62 0 113 -4 117 -10 5 -6 8 -6 8 1 0 6 10 9 23 7 l22 -4
-1 -562 c-1 -309 -2 -565 -3 -568 0 -3 -128 -5 -283 -5 l-282 1 0 555 c-1 305
2 562 5 570 6 12 31 15 138 15 81 0 131 -4 131 -10z m970 0 c0 6 45 10 115 10
63 0 115 -3 115 -7 0 -3 8 -4 18 -2 38 9 142 9 143 -1 0 -6 3 -5 5 1 5 12 55
6 64 -7 4 -5 5 -981 1 -1100 l-1 -25 -280 0 c-154 -1 -281 2 -281 5 -1 3 -2
258 -3 566 l-1 560 45 5 c25 3 48 1 52 -5 5 -7 8 -7 8 0z"/>
<path d="M4839 4260 c-1 -3 -2 -354 -3 -781 l-1 -776 143 0 142 -1 0 783 0
782 -140 -1 c-77 0 -141 -3 -141 -6z"/>
<path d="M944 710 l-90 -5 0 -280 1 -280 283 -1 282 -2 1 27 c0 14 1 142 2
284 l2 257 -40 0 c-22 1 -110 2 -195 3 -85 1 -196 0 -246 -3z"/>
</g>
</svg>
